<svg width="321" height="141" viewBox="0 0 321 141" fill="none" xmlns="http://www.w3.org/2000/svg">
<path d="M35.5517 117.141L34.8516 120.237L34.0441 123.134L33.1276 125.831L32.1049 128.325L30.9755 130.611L29.7394 132.686L28.3994 134.545L26.9556 136.183L25.5916 137.431L24.1611 138.461L22.6647 139.27L21.1025 139.852L19.4751 140.205L17.7835 140.322L16.0294 140.202L14.2128 139.839L12.3352 139.23L11.0291 138.683L9.7657 138.057L8.54268 137.354L7.3602 136.58L6.21828 135.732L5.11613 134.816L4.08011 133.873L3.13637 132.948L2.28548 132.04L1.52552 131.157L0.856479 130.296L0.27894 129.461L2.93938 116.292L3.46161 117.109L4.05619 117.944L4.72372 118.792L5.46419 119.654L6.27875 120.529L7.16627 121.413L8.1046 122.262L9.06914 123.03L10.0624 123.716L11.0826 124.318L12.1309 124.835L13.2078 125.264L14.741 125.694L16.1872 125.868L17.546 125.79L18.8187 125.462L20.0015 124.889L21.0959 124.073L22.0921 123.048L22.9802 121.848L23.7597 120.475L24.4297 118.933L24.99 117.225L25.4398 115.354L25.6993 114.069L25.6287 114.054L25.4893 114.023L25.4189 114.007L25.2795 113.977L24.648 114.795L23.9393 115.556L23.1557 116.259L22.2955 116.902L21.3603 117.482L20.3504 117.999L19.2942 118.409L18.2192 118.675L17.1267 118.796L16.0158 118.772L14.8875 118.602L13.7409 118.285L12.4778 117.776L11.3032 117.13L10.2161 116.352L9.21599 115.443L8.30271 114.411L7.47414 113.255L6.73712 111.997L6.09449 110.655L5.547 109.233L5.09448 107.73L4.73538 106.149L4.47161 104.49L4.30429 102.774L4.23893 101.021L4.274 99.2298L4.40989 97.3982L4.64851 95.5265L4.98834 93.6126L5.41582 91.7283L5.91512 89.9471L6.48872 88.2667L7.13491 86.6856L7.85445 85.2L8.64947 83.8094L9.50747 82.5262L10.4204 81.3656L11.3867 80.3254L12.4074 79.4058L13.4828 78.6048L14.6118 77.9233L15.7851 77.3723L16.9894 76.964L18.2264 76.6998L19.4953 76.5785L20.7956 76.6021L22.1271 76.7725L23.2838 77.039L24.3713 77.4111L25.39 77.8919L26.3388 78.4821L27.2182 79.1838L28.0274 79.9968L28.7552 80.8771L29.3914 81.7768L29.9356 82.6977L30.3869 83.6397L30.7472 84.6032L31.0144 85.5887L31.1557 85.6093L31.2273 85.6197L31.3686 85.6403L31.4402 85.6508L32.6566 79.6298L34.3588 79.8442L36.064 80.0432L37.7722 80.2279L39.4833 80.3982L41.1971 80.5552L42.9142 80.6958L35.5517 117.141ZM70.0968 80.5979L71.4629 81.1349L72.714 81.841L73.8523 82.7165L74.8692 83.7439L75.7586 84.9039L76.5213 86.1987L77.1566 87.6302L77.6638 89.1982L78.0433 90.9048L78.2936 92.7238L78.4138 94.6291L78.4046 96.6228L78.2634 98.7074L77.9922 100.883L77.5904 103.153L77.3127 104.528L75.4564 104.796L73.6043 105.042L71.7563 105.269L69.9127 105.473L68.0733 105.656L66.2383 105.819L64.4067 105.959L62.5805 106.077L60.7588 106.173L58.9417 106.247L57.1288 106.299L55.3206 106.328L53.5169 106.335L53.4351 107.746L53.4883 109.051L53.6769 110.248L54.0007 111.338L54.4604 112.317L55.0561 113.186L55.7966 113.924L56.6925 114.515L57.7437 114.953L58.9497 115.237L60.3133 115.362L61.8331 115.325L62.8463 115.207L63.8742 115.001L64.9166 114.709L65.9743 114.33L67.0466 113.866L68.133 113.316L69.1904 112.718L70.1743 112.108L71.0835 111.489L71.9195 110.862L72.6815 110.227L73.368 109.585L70.559 123.49L69.8392 124.149L69.0193 124.804L68.0978 125.455L67.0771 126.098L65.9564 126.734L64.7366 127.357L63.4619 127.931L62.1752 128.422L60.8773 128.825L59.5699 129.142L58.2509 129.368L56.9219 129.506L54.9066 129.54L53.0404 129.353L51.3231 128.952L49.7534 128.343L48.3308 127.529L47.0529 126.516L45.9241 125.333L44.9435 124.007L44.1117 122.542L43.4275 120.943L42.8894 119.212L42.4989 117.353L42.2472 115.393L42.1281 113.359L42.1424 111.252L42.2879 109.071L42.5666 106.819L42.9775 104.494L43.5114 102.127L44.1379 99.8596L44.857 97.6905L45.6691 95.6188L46.5734 93.6426L47.5714 91.7599L48.6544 89.9941L49.8165 88.3648L51.0556 86.8716L52.3731 85.5138L53.7693 84.2885L55.2444 83.1957L56.7861 82.2518L58.3829 81.4735L60.0331 80.8603L61.7391 80.4099L63.4999 80.122L65.3173 79.993L67.0241 80.027L68.6171 80.2293L70.0968 80.5979ZM114.455 74.9932L115.632 75.513L116.631 76.2737L117.452 77.2754L118.083 78.4987L118.513 79.9297L118.741 81.5678L118.765 83.4198L118.588 85.489L118.204 87.7818L112.996 113.563L111.092 114.348L109.191 115.117L107.293 115.87L105.399 116.605L103.509 117.323L101.622 118.023L106.398 94.3822L106.61 93.1389L106.721 92.0157L106.731 91.0133L106.639 90.13L106.447 89.3658L106.153 88.7187L105.763 88.1945L105.28 87.8021L104.704 87.5403L104.036 87.4094L103.275 87.4091L102.421 87.5394L101.662 87.7488L100.916 88.0423L100.179 88.4216L99.4536 88.8877L98.7392 89.4407L98.0348 90.0815L97.3601 90.7731L96.7331 91.4754L96.1544 92.1894L95.6223 92.9148L95.1387 93.652L94.7025 94.4007L89.0857 122.204L87.2304 122.748L85.3796 123.269L83.5334 123.768L81.6918 124.243L79.8548 124.696L78.0226 125.125L87.2271 79.5622L89.0172 79.341L90.8097 79.1084L92.6048 78.8633L94.4021 78.6067L96.2018 78.3386L98.0037 78.059L96.6739 84.6418L96.7411 84.6295L96.8092 84.6183L97.0781 84.5691L97.7423 83.5206L98.495 82.4871L99.3362 81.4695L100.267 80.4679L101.286 79.4813L102.394 78.5105L103.561 77.6086L104.758 76.8291L105.985 76.1713L107.24 75.6319L108.527 75.2095L109.846 74.901L111.561 74.6846L113.098 74.7171L114.455 74.9932ZM22.4785 89.0839L21.5092 89.0883L20.6015 89.2367L19.755 89.531L18.9706 89.9713L18.2463 90.5582L17.5863 91.2807L16.9949 92.1316L16.4706 93.1097L16.0126 94.2177L15.6229 95.456L15.2993 96.8263L15.0643 98.2215L14.9388 99.5331L14.9245 100.763L15.0198 101.909L15.224 102.974L15.5396 103.957L15.966 104.845L16.5034 105.627L17.1546 106.299L17.9186 106.862L18.7961 107.312L19.7869 107.645L20.5402 107.797L21.2873 107.857L22.0279 107.826L22.763 107.703L23.4929 107.488L24.2163 107.182L24.9121 106.81L25.559 106.404L26.1553 105.963L26.7017 105.487L27.1982 104.978L27.6455 104.435L29.4941 95.2843L29.2899 94.6234L29.0276 93.9736L28.7061 93.3358L28.326 92.7071L27.886 92.0891L27.3882 91.4805L26.8408 90.9156L26.253 90.4272L25.626 90.0146L24.96 89.6768L24.254 89.4137L23.5082 89.2241L22.4785 89.0839ZM63.0622 91.1562L62.1469 91.2533L61.2649 91.4816L60.4146 91.8438L59.597 92.3402L58.8121 92.9707L58.0596 93.7362L57.3531 94.6147L56.706 95.5839L56.1204 96.6432L55.594 97.7942L55.1279 99.0361L54.7218 100.371L56.5323 100.365L58.3472 100.337L60.1661 100.289L61.9891 100.221L63.8166 100.131L65.6479 100.022L67.4835 99.8912L67.6167 98.5761L67.6577 97.3569L67.6076 96.234L67.4667 95.2052L67.2359 94.2719L66.9132 93.4326L66.4996 92.7084L65.9951 92.1233L65.399 91.6761L64.7113 91.3668L63.9324 91.1935L63.0622 91.1562ZM153.548 66.7826L154.692 67.184L155.714 67.6904L156.615 68.3027L157.394 69.0211L158.052 69.8453L158.586 70.7783L158.997 71.8037L159.28 72.908L159.433 74.0946L159.457 75.3677L159.35 76.7309L159.111 78.1881L158.931 79.0812L156.971 79.8599L155.012 80.6368L153.053 81.4117L151.094 82.1847L149.137 82.9549L147.18 83.7202L145.223 84.4827L143.268 85.2394L141.314 85.9914L139.361 86.7366L137.41 87.4761L135.459 88.209L133.511 88.9331L133.511 89.9325L133.653 90.8L133.935 91.5344L134.358 92.133L134.922 92.5947L135.628 92.9186L136.484 93.0886L137.499 93.0894L138.671 92.9227L140.003 92.589L141.492 92.0878L143.14 91.4234L144.229 90.926L145.328 90.3719L146.434 89.7635L147.549 89.1021L148.671 88.3881L149.801 87.6252L150.894 86.8517L151.904 86.1063L152.834 85.3914L153.682 84.705L154.447 84.0476L155.132 83.4179L153.269 92.6417L152.543 93.3319L151.706 94.0695L150.758 94.8552L149.699 95.6884L148.527 96.5696L147.246 97.4992L145.898 98.4364L144.528 99.3383L143.137 100.204L141.726 101.031L140.295 101.818L138.843 102.562L136.625 103.594L134.554 104.424L132.63 105.047L130.854 105.458L129.226 105.657L127.748 105.641L126.423 105.423L125.257 105.018L124.248 104.428L123.397 103.655L122.703 102.7L122.166 101.567L121.779 100.279L121.535 98.8619L121.434 97.3182L121.477 95.6521L121.661 93.8671L121.986 91.9681L122.443 89.985L123.003 88.0419L123.668 86.1409L124.436 84.2854L125.307 82.4787L126.279 80.7225L127.346 79.038L128.5 77.4458L129.74 75.9479L131.068 74.5424L132.481 73.2309L133.982 72.0108L135.558 70.8984L137.197 69.9074L138.9 69.0351L140.668 68.2764L142.502 67.6296L144.403 67.0871L146.196 66.6912L147.881 66.4378L149.458 66.3239L150.928 66.3449L152.291 66.4998L153.548 66.7826ZM189.525 63.155L189.046 63.3123L188.568 63.4698L187.611 63.7866L187.133 63.946L186.653 64.1052L185.298 64.5827L184.019 65.0895L182.815 65.6272L181.685 66.195L180.63 66.7958L179.649 67.4296L178.76 68.0698L177.977 68.6908L177.3 69.2905L176.731 69.8679L176.271 70.4215L175.918 70.9509L173.163 84.5885L171.223 85.5516L169.282 86.5194L167.34 87.491L165.397 88.4665L163.455 89.4439L161.511 90.4232L167.289 61.8232L169.135 61.3235L170.981 60.8257L172.827 60.3288L174.673 59.8329L176.518 59.3399L178.363 58.8478L177.542 62.9122L177.749 62.8494L177.819 62.8286L177.957 62.7867L178.529 62.0614L179.17 61.3391L179.88 60.6198L180.661 59.9048L181.511 59.1957L182.429 58.4916L183.388 57.8315L184.358 57.2483L185.34 56.7414L186.334 56.3085L187.34 55.9479L188.36 55.6567L188.831 55.5396L189.301 55.4224L190.71 55.0735L191.181 54.9574L189.525 63.155ZM145.265 74.9027L144.514 74.9065L143.675 75.027L142.75 75.2675L141.784 75.6123L140.861 76.0407L139.982 76.5534L139.144 77.1512L138.348 77.8353L137.593 78.6084L136.894 79.4495L136.264 80.3385L135.703 81.2752L135.211 82.2578L134.788 83.2862L134.435 84.3586L136.379 83.6893L138.325 83.0134L140.272 82.3308L142.22 81.6424L144.17 80.9483L146.12 80.2493L148.072 79.5457L148.116 78.6678L148.071 77.8777L147.936 77.1769L147.711 76.5616L147.398 76.0321L146.996 75.5893L146.506 75.2451L145.929 75.0161L145.265 74.9027ZM86.2211 19.3146L84.4459 19.2888L82.6702 19.2658L80.8939 19.2457L79.117 19.2284L77.3405 19.2143L75.5622 19.2037L73.7834 19.1961L72.004 19.1913L70.2242 19.1884L68.4437 19.1894L66.6635 19.1934L64.1556 31.6077L68.0178 31.6148L69.9502 31.6166L71.8817 31.6182L73.8141 31.62L75.746 31.6198L77.6788 31.6197L79.6107 31.6194L81.5437 31.6184L79.7163 40.6641L77.7796 40.6834L75.8445 40.6999L73.9091 40.7125L71.9755 40.7213L70.0415 40.7272L68.1095 40.7284L66.1771 40.7266L64.2464 40.7211L62.3166 40.7109L57.9698 62.2283L56.2304 62.1978L54.493 62.1576L52.7576 62.1079L51.0241 62.0487L49.2923 61.9808L47.5626 61.9023L59.1575 4.50613L61.0466 4.45137L62.9341 4.40428L64.8212 4.36408L66.7057 4.3323L68.5897 4.30741L70.4712 4.28999L72.3522 4.28041L74.2306 4.27831L76.1082 4.28501L77.9834 4.29918L79.857 4.321L81.73 4.35067L83.6001 4.38973L85.4698 4.43568L87.3369 4.49005L89.2031 4.55322L86.2211 19.3146ZM114.179 15.8932L115.706 16.5625L117.104 17.3838L118.37 18.353L119.503 19.4476L120.496 20.6485L121.351 21.953L122.067 23.3619L122.644 24.8734L123.083 26.4902L123.387 28.1915L123.56 29.9571L123.602 31.7898L123.512 33.6924L123.289 35.6669L122.934 37.7182L122.46 39.7734L121.882 41.759L121.2 43.6795L120.413 45.5369L119.52 47.3341L118.521 49.0731L117.42 50.7347L116.221 52.2988L114.925 53.7655L113.529 55.1335L112.038 56.4032L110.447 57.5734L108.773 58.621L107.027 59.5237L105.212 60.2788L103.327 60.8813L101.374 61.3276L99.3527 61.6118L97.3679 61.7209L95.5201 61.6405L93.8119 61.3722L92.2419 60.9125L90.8099 60.2636L89.517 59.4236L88.3674 58.4122L87.3653 57.2523L86.5119 55.9432L85.805 54.4863L85.2458 52.8848L84.8335 51.1377L84.5629 49.2718L84.4299 47.3112L84.4322 45.2583L84.5716 43.1135L84.8457 40.8784L85.2565 38.5544L85.785 36.2292L86.4148 33.9892L87.1435 31.837L87.9728 29.7738L88.9007 27.7993L89.9288 25.9158L91.051 24.148L92.2625 22.5207L93.5639 21.0351L94.9533 19.6908L96.4322 18.4902L97.9996 17.4339L99.6424 16.5413L101.349 15.8339L103.117 15.3095L104.949 14.9681L106.845 14.8092L108.803 14.8293L110.728 15.0228L112.519 15.3787L114.179 15.8932ZM225.643 49.7186L226.541 50.1542L227.2 50.6907L227.619 51.3303L227.797 52.0756L227.734 52.9316L225.839 62.3115L223.974 62.9012L222.105 63.511L220.233 64.1419L218.356 64.7919L216.475 65.462L214.59 66.1513L215.052 63.8626L214.983 63.8873L214.913 63.9111L214.843 63.9359L214.774 63.9597L214.703 63.9843L214.633 64.009L213.919 64.5841L213.107 65.19L212.196 65.828L211.186 66.5007L210.076 67.2101L208.867 67.9571L207.591 68.7146L206.282 69.4533L204.937 70.17L203.561 70.8643L202.151 71.5349L200.707 72.1808L198.973 72.9005L197.4 73.4813L195.991 73.917L194.746 74.2015L193.667 74.3302L192.753 74.3011L192.008 74.1236L191.431 73.8128L191.023 73.3688L190.784 72.7925L190.713 72.0868L190.811 71.2546L191.115 70.2072L191.602 69.1628L192.271 68.1272L193.121 67.1066L194.152 66.1023L195.363 65.1195L196.782 64.1527L198.437 63.1959L200.326 62.2525L202.451 61.3239L204.811 60.4137L207.405 59.5211L208.653 59.1177L209.795 58.7455L210.828 58.4033L211.754 58.0893L212.572 57.8042L213.285 57.5466L213.907 57.3107L214.459 57.0914L214.939 56.8895L215.349 56.7043L215.688 56.5337L215.955 56.3795L216.171 56.2328L216.353 56.0873L216.501 55.9408L216.616 55.7945L216.695 55.6482L216.741 55.5021L216.743 55.2863L216.653 55.1107L216.471 54.9723L216.198 54.8733L215.833 54.8115L215.376 54.789L214.801 54.8133L214.082 54.8972L213.218 55.0414L212.209 55.2471L211.055 55.516L209.755 55.8502L208.349 56.2456L206.948 56.679L205.552 57.1511L204.16 57.663L202.771 58.2163L201.386 58.8133L200.047 59.4274L198.794 60.0321L197.628 60.6266L196.55 61.2088L195.561 61.779L194.659 62.3342L195.952 55.9361L196.801 55.4492L197.761 54.9487L198.83 54.4363L200.008 53.914L201.295 53.382L202.69 52.841L204.152 52.3163L205.641 51.8291L207.156 51.378L208.699 50.9613L210.268 50.5779L211.864 50.2278L214.3 49.7654L216.524 49.4277L218.536 49.2065L220.34 49.0966L221.936 49.0913L223.324 49.1884L224.505 49.3832L225.643 49.7186ZM160.731 21.8254L159.254 23.3443L157.772 24.8941L156.283 26.4743L154.789 28.0863L153.288 29.7288L151.781 31.403L150.267 33.1067L148.748 34.8403L147.223 36.6045L148.068 38.3493L148.921 40.0628L149.78 41.7437L150.645 43.392L151.517 45.0069L152.395 46.589L153.281 48.1388L154.173 49.6541L155.072 51.1369L155.977 52.585L153.961 52.922L151.945 53.2559L149.929 53.5889L147.914 53.9181L145.9 54.2464L143.886 54.5708L143.188 53.1616L142.495 51.7294L141.806 50.2742L141.123 48.7961L140.443 47.2959L139.769 45.7728L139.703 45.7784L139.636 45.7848L139.57 45.7904L139.504 45.797L139.438 45.8026L139.372 45.8092L138.04 47.5416L136.703 49.296L135.362 51.0705L134.017 52.8642L132.668 54.6789L131.315 56.5137L129.307 56.8075L127.3 57.0974L125.294 57.3815L123.29 57.6601L121.286 57.9319L119.284 58.1978L120.934 55.9627L122.579 53.7506L124.22 51.5634L125.854 49.4008L127.484 47.2643L129.109 45.1537L130.729 43.0689L132.342 41.0126L133.95 38.9833L135.553 36.9827L134.76 35.1248L133.971 33.2389L133.189 31.3264L132.411 29.3878L131.639 27.4236L130.871 25.4334L130.109 23.4194L129.352 21.3804L128.6 19.3176L127.853 17.2309L129.497 17.3568L131.141 17.4856L132.785 17.6166L134.428 17.7511L136.07 17.8876L137.712 18.0272L139.354 18.1684L139.947 19.8515L140.544 21.5174L141.145 23.1641L141.75 24.7916L142.359 26.4012L142.972 27.9905L143.036 27.9925L143.1 27.9936L143.229 27.9977L143.295 27.9989L143.359 28.001L144.599 26.485L145.834 24.9891L147.066 23.5134L148.294 22.0587L149.518 20.6243L150.737 19.2107L152.648 19.3944L154.559 19.5793L156.47 19.7671L158.38 19.9567L160.289 20.1472L162.199 20.3387L160.731 21.8254ZM106.441 26.5256L105.253 26.5946L104.117 26.8442L103.033 27.2738L101.999 27.8848L101.016 28.6787L100.085 29.6552L99.2232 30.7883L98.451 32.051L97.7673 33.4432L97.1721 34.9638L96.6672 36.6103L96.2512 38.3834L95.9513 40.154L95.7922 41.7946L95.7753 43.3036L95.8996 44.6806L96.1657 45.923L96.5744 47.0317L97.1174 47.9783L97.7857 48.739L98.5805 49.312L99.4997 49.6989L100.545 49.9001L101.715 49.9164L102.922 49.7557L104.074 49.4255L105.173 48.9281L106.217 48.2642L107.206 47.4369L108.14 46.447L109 45.3216L109.767 44.0868L110.442 42.7406L111.023 41.2838L111.514 39.7141L111.911 38.0289L112.194 36.3476L112.336 34.7871L112.34 33.3454L112.205 32.02L111.931 30.8119L111.519 29.7185L110.978 28.7652L110.315 27.9787L109.53 27.3609L108.622 26.9106L107.594 26.632L106.441 26.5256ZM215.957 58.3526L215.653 58.5222L215.284 58.7107L214.85 58.9169L214.352 59.1431L213.789 59.3891L213.172 59.648L212.511 59.9129L211.807 60.1852L211.061 60.4628L210.27 60.7474L209.437 61.0394L207.584 61.7362L206.043 62.4311L204.815 63.1215L203.899 63.8032L203.296 64.4735L203.009 65.1249L202.984 65.3857L203.021 65.6045L203.121 65.782L203.283 65.9174L203.507 66.0105L203.794 66.0616L204.148 66.0654L204.572 66.0185L205.065 65.9208L205.628 65.7725L206.261 65.5755L206.962 65.3287L207.864 64.9878L208.744 64.6306L209.602 64.2599L210.439 63.8741L211.254 63.4758L212.048 63.0633L212.801 62.6545L213.493 62.2632L214.124 61.8906L214.695 61.5337L215.206 61.1946L215.657 60.8703L216.196 58.2006L215.957 58.3526ZM181.258 14.2091L181.853 14.3501L182.41 14.4965L182.929 14.6473L183.412 14.8026L183.894 14.9726L184.412 15.169L184.967 15.3907L185.56 15.637L186.189 15.9065L186.856 16.2007L185.33 23.7512L184.616 23.4614L183.908 23.2088L183.205 22.9971L182.508 22.8244L181.816 22.6936L181.129 22.6057L179.914 22.5822L178.876 22.7741L178.017 23.1824L177.335 23.8108L176.831 24.6575L176.506 25.7175L176.237 27.0471L179.927 27.2307L181.156 27.2907L182.386 27.3519L183.616 27.4121L182.952 30.7011L180.475 30.6649L179.237 30.647L175.521 30.5927L171.611 49.9468L169.804 50.2522L167.996 50.5586L160.767 51.7803L165.079 30.439L164.229 30.4268L162.529 30.402L161.679 30.3899L159.979 30.3651L160.804 26.2787L161.649 26.3198L162.493 26.3619L163.336 26.4037L165.025 26.4878L165.869 26.5297L166.384 23.9767L166.849 22.1218L167.457 20.4365L168.208 18.9264L169.101 17.5984L170.136 16.4565L171.311 15.5042L172.588 14.75L173.929 14.1989L175.336 13.8475L176.808 13.6916L178.348 13.7258L179.956 13.9421L180.626 14.0734L181.258 14.2091ZM246.861 45.0564L248.294 44.9174L249.725 44.7861L251.154 44.6642L252.582 44.5502L254.008 44.4457L255.432 44.3488L255.127 45.8555L253.701 45.9629L252.272 46.0808L250.842 46.2073L249.411 46.3445L247.976 46.4902L246.54 46.6454L245.407 52.2538L245.381 52.5464L245.426 52.8035L245.543 53.0264L245.733 53.2143L245.994 53.3676L246.328 53.4868L246.726 53.5713L247.183 53.6206L247.698 53.636L248.271 53.6183L248.902 53.5675L249.591 53.4855L250.291 53.3857L250.987 53.2754L251.679 53.1551L252.369 53.0255L253.055 52.886L253.738 52.7361L253.032 56.229L252.367 56.3776L251.736 56.5172L251.139 56.6495L250.573 56.7714L250.041 56.8851L249.541 56.9873L249.043 57.086L248.513 57.1882L247.951 57.2938L247.358 57.4031L246.732 57.5159L246.074 57.6339L244.149 57.9554L242.383 58.1954L240.779 58.3457L239.338 58.3963L238.063 58.341L236.954 58.1726L236.029 57.8862L235.308 57.4774L234.791 56.9446L234.477 56.2875L234.367 55.506L234.459 54.6041L235.775 48.0912L235.021 48.2108L234.265 48.3311L233.51 48.4555L232.753 48.5806L231.997 48.7088L231.24 48.8399L231.609 47.0163L232.329 46.9047L232.689 46.8501L233.049 46.7953L233.41 46.7416L233.769 46.6877L234.185 46.6191L234.559 46.5413L234.894 46.4547L235.188 46.3597L235.443 46.2556L235.658 46.1426L235.84 46.0141L235.998 45.8656L236.131 45.6963L236.24 45.5071L236.326 45.2963L236.387 45.0644L236.802 43.0064L238.586 42.8168L240.368 42.6368L242.148 42.4654L243.926 42.3035L245.703 42.1513L247.477 42.0095L246.861 45.0564ZM212.493 25.2613L213.968 25.6968L215.333 26.1798L216.582 26.7001L217.707 27.2502L218.708 27.829L219.587 28.4378L220.34 29.0782L220.969 29.7513L221.475 30.4503L221.859 31.1685L222.122 31.9091L222.262 32.6745L222.279 33.467L222.171 34.2901L221.946 35.1163L221.606 35.9185L221.154 36.7009L220.588 37.4642L219.907 38.2134L219.111 38.9502L218.201 39.668L217.178 40.3601L216.042 41.0292L214.793 41.6756L213.43 42.301L211.954 42.9054L210.376 43.4802L208.704 44.0153L206.942 44.5081L205.089 44.9567L203.144 45.3578L201.111 45.7072L199.091 45.9846L197.191 46.1677L195.411 46.2514L193.752 46.2302L192.216 46.0981L190.802 45.8535L189.52 45.4998L188.376 45.0465L187.37 44.4905L186.502 43.833L185.773 43.073L185.181 42.2133L184.725 41.2673L184.4 40.2502L184.207 39.166L184.145 38.0178L184.213 36.809L184.41 35.5436L184.725 34.2752L185.148 33.0536L185.678 31.8825L186.316 30.768L187.059 29.7126L187.907 28.7193L188.858 27.8034L189.907 26.9792L191.055 26.2486L192.302 25.612L193.647 25.0687L195.092 24.6184L196.625 24.2695L198.237 24.0273L199.928 23.8887L201.7 23.849L203.552 23.9043L205.486 24.0481L207.405 24.2653L209.213 24.5429L210.908 24.8764L212.493 25.2613ZM284.645 44.6492L286.035 45.0078L287.308 45.4122L288.455 45.8532L289.476 46.3306L290.374 46.8427L291.147 47.3874L291.796 47.9618L292.323 48.5594L292.729 49.1716L293.015 49.7942L293.182 50.4277L293.229 51.0678L293.157 51.7139L292.972 52.34L292.678 52.9212L292.275 53.4565L291.765 53.9443L291.146 54.3851L290.419 54.7792L289.584 55.1217L288.644 55.407L287.596 55.6377L286.442 55.817L285.179 55.9494L283.807 56.0379L282.335 56.0843L280.772 56.0902L279.114 56.0593L277.364 55.9986L275.518 55.9146L273.575 55.812L271.634 55.7008L269.794 55.5842L268.057 55.4554L266.423 55.3117L264.894 55.1454L263.47 54.9532L262.161 54.7356L260.974 54.4918L259.91 54.2172L258.972 53.9082L258.159 53.5626L257.472 53.1757L256.91 52.7543L256.472 52.3001L256.159 51.8134L255.969 51.2938L255.904 50.7408L255.964 50.155L256.143 49.5596L256.437 48.9773L256.846 48.4095L257.369 47.8567L258.008 47.3211L258.76 46.8035L259.624 46.3126L260.599 45.855L261.685 45.4318L262.882 45.0459L264.188 44.6981L265.604 44.3902L267.12 44.1286L268.724 43.9207L270.418 43.7677L272.201 43.6725L274.071 43.635L276.03 43.66L277.976 43.7463L279.81 43.8897L281.532 44.0891L283.145 44.3432L284.645 44.6492ZM318.356 49.2296L318.782 49.3306L319.633 49.5345L320.06 49.6376L320.485 49.7415L320.91 49.8463L319.67 55.9869L318.832 55.7141L318.412 55.5794L317.993 55.4459L317.573 55.3133L317.153 55.1817L315.965 54.835L314.844 54.5547L313.792 54.3401L312.807 54.1871L311.893 54.094L311.048 54.0588L310.284 54.07L309.618 54.1156L309.048 54.1957L308.572 54.3099L308.193 54.4574L307.91 54.6394L306.331 62.457L304.705 61.8617L303.075 61.2903L301.44 60.7448L299.8 60.2241L298.154 59.7283L296.504 59.2584L299.187 45.974L300.882 46.2266L302.573 46.4936L304.262 46.775L305.948 47.0707L307.631 47.3789L309.311 47.7024L308.841 50.0313L308.903 50.0458L308.966 50.0595L309.027 50.074L309.151 50.101L309.213 50.1155L309.689 49.865L310.23 49.6385L310.837 49.4344L311.509 49.2543L312.247 49.0985L313.051 48.965L313.895 48.8705L314.756 48.8293L315.632 48.8428L316.525 48.9135L317.433 49.0413L318.356 49.2296ZM205.551 29.5368L204.392 29.4631L203.216 29.4696L202.113 29.5625L201.077 29.7449L200.112 30.0202L199.216 30.3881L198.388 30.8524L197.645 31.3987L197.002 32.0152L196.461 32.7009L196.022 33.4531L195.684 34.2695L195.45 35.1477L195.33 36.0222L195.341 36.8264L195.48 37.5579L195.75 38.2151L196.151 38.7952L196.682 39.298L197.333 39.7105L198.092 40.0213L198.959 40.2332L199.934 40.3466L201.015 40.3657L202.205 40.2922L203.409 40.139L204.54 39.9171L205.596 39.6282L206.577 39.2766L207.483 38.8608L208.314 38.3831L209.053 37.8569L209.684 37.292L210.209 36.6876L210.627 36.0428L210.938 35.3545L211.144 34.621L211.234 33.8909L211.198 33.2142L211.037 32.5868L210.751 32.009L210.342 31.4779L209.807 30.9923L209.16 30.5627L208.411 30.2012L207.559 29.9086L206.607 29.6863L205.551 29.5368ZM277.638 46.8832L276.576 46.7662L275.416 46.6983L274.245 46.6839L273.151 46.7249L272.134 46.8193L271.195 46.9653L270.333 47.1618L269.549 47.408L268.858 47.6958L268.276 48.0166L267.801 48.371L267.436 48.7566L267.18 49.174L267.032 49.6213L266.999 50.068L267.088 50.4815L267.298 50.8617L267.631 51.2109L268.084 51.5276L268.659 51.815L269.342 52.0686L270.121 52.2808L270.995 52.4564L271.965 52.5956L273.03 52.701L274.189 52.7738L275.354 52.813L276.441 52.8113L277.448 52.7657L278.376 52.6733L279.227 52.5342L279.999 52.3436L280.68 52.1064L281.253 51.8268L281.721 51.5029L282.083 51.1357L282.339 50.723L282.489 50.2662L282.526 49.7993L282.443 49.3543L282.24 48.9337L281.918 48.5378L281.475 48.1684L280.912 47.8264L280.239 47.5221L279.47 47.2621L278.603 47.0492L277.638 46.8832ZM250.084 31.6338L249.638 31.6333L249.19 31.6336L248.298 31.6327L247.851 31.6331L247.405 31.6327L246.144 31.6469L244.957 31.6921L243.846 31.7675L242.809 31.8748L241.847 32.0143L240.96 32.1876L240.16 32.3828L239.461 32.5864L238.863 32.7993L238.367 33.0209L237.971 33.2498L237.678 33.4863L236.185 40.8751L234.406 41.0389L232.626 41.2093L230.845 41.3865L229.062 41.5703L227.278 41.7609L225.493 41.9581L228.645 26.3534L230.37 26.4596L232.095 26.561L233.82 26.6596L235.547 26.7533L237.274 26.8432L239.002 26.9293L238.557 29.1309L238.686 29.135L238.752 29.1363L238.816 29.1383L238.88 29.1394L238.945 29.1414L239.432 28.8335L239.987 28.5409L240.608 28.2629L241.297 28.0007L242.054 27.754L242.876 27.5227L243.743 27.3231L244.626 27.1677L245.528 27.058L246.448 26.9908L247.386 26.9662L248.344 26.9834L249.673 27.0337L250.116 27.0495L250.56 27.0655L251.004 27.0803L250.084 31.6338ZM287.042 39.6598L285.313 39.5766L283.583 39.503L281.85 39.4389L280.116 39.3844L278.379 39.3385L276.641 39.3022L276.944 37.8041L276.879 37.804L276.75 37.8019L276.684 37.8006L276.62 37.7995L276.555 37.7994L276.013 38.0176L275.384 38.2282L274.668 38.4314L273.865 38.6269L272.977 38.8161L272.002 38.9996L270.966 39.166L269.897 39.3047L268.794 39.4167L267.657 39.5018L266.487 39.5602L265.282 39.5928L263.96 39.5967L262.697 39.5629L261.496 39.4916L260.356 39.3817L259.275 39.2303L258.257 39.0375L257.312 38.8038L256.452 38.5303L255.678 38.2155L254.989 37.8581L254.385 37.4592L253.867 37.0169L253.443 36.5358L253.121 36.0213L252.901 35.4737L252.781 34.8916L252.763 34.2782L252.846 33.6344L253.023 32.9888L253.29 32.3713L253.646 31.7836L254.089 31.2275L254.622 30.7015L255.243 30.2082L255.942 29.7516L256.71 29.3369L257.547 28.9639L258.452 28.6317L259.426 28.3394L260.469 28.0878L261.569 27.8776L262.714 27.7093L263.902 27.5837L265.135 27.498L266.413 27.4524L267.735 27.4456L268.929 27.4705L270.077 27.525L271.18 27.6074L272.237 27.7194L273.25 27.8592L274.218 28.0298L275.118 28.2177L275.929 28.4123L276.651 28.6141L277.284 28.8225L277.827 29.0398L278.28 29.2638L278.344 29.2639L278.409 29.2631L278.475 29.2634L278.54 29.2635L278.605 29.2627L278.669 29.2628L279.585 24.7284L281.336 24.7045L283.087 24.6738L284.841 24.6354L286.595 24.5903L288.351 24.5395L290.108 24.4811L287.042 39.6598ZM274.952 30.9019L274.319 30.8139L273.664 30.7443L272.987 30.6943L272.289 30.6639L271.569 30.6539L270.485 30.673L269.474 30.7348L268.535 30.8391L267.67 30.987L266.876 31.1784L266.155 31.4123L265.519 31.6854L264.982 31.9904L264.545 32.3276L264.207 32.6965L263.967 33.0985L263.827 33.5314L263.793 33.9628L263.87 34.3631L264.06 34.7292L264.361 35.0631L264.776 35.364L265.303 35.6318L265.93 35.8611L266.647 36.0469L267.454 36.19L268.351 36.2915L269.338 36.3513L270.414 36.3704L271.138 36.3603L271.848 36.3314L272.544 36.2847L273.227 36.2184L273.895 36.1332L274.551 36.0295L275.171 35.9137L275.737 35.792L276.25 35.6664L276.707 35.5346L277.11 35.3969L277.459 35.2541L278.154 31.8129L277.864 31.6666L277.517 31.5247L277.114 31.3886L276.653 31.2576L276.137 31.1314L275.564 31.0108L274.952 30.9019Z" fill="url(#paint0_linear_7299_6544)"/>
<defs>
<linearGradient id="paint0_linear_7299_6544" x1="205.207" y1="33.1835" x2="98.175" y2="96.498" gradientUnits="userSpaceOnUse">
<stop stop-color="#695CFF"/>
<stop offset="1"/>
</linearGradient>
</defs>
</svg>
